<?xml version="1.0" encoding="utf-8"?><!DOCTYPE svg PUBLIC "-//W3C//DTD SVG 1.1//EN" "http://www.w3.org/Graphics/SVG/1.1/DTD/svg11.dtd"><svg xmlns="http://www.w3.org/2000/svg" viewBox="0 0 69 69" shape-rendering="crispEdges"><path fill="#ffffff" d="M0 0h69v69H0z"/><path stroke="#000000" d="M8 8.5h7m1 0h2m4 0h1m1 0h3m2 0h1m1 0h2m1 0h2m1 0h4m3 0h2m2 0h1m1 0h1m3 0h7M8 9.5h1m5 0h1m1 0h3m2 0h3m1 0h1m2 0h3m3 0h2m1 0h2m1 0h3m2 0h1m3 0h3m2 0h1m5 0h1M8 10.5h1m1 0h3m1 0h1m3 0h4m2 0h2m10 0h2m2 0h1m1 0h1m1 0h1m1 0h3m2 0h1m2 0h1m1 0h3m1 0h1M8 11.5h1m1 0h3m1 0h1m1 0h2m1 0h1m6 0h1m6 0h1m1 0h1m1 0h1m4 0h4m3 0h2m1 0h1m1 0h1m1 0h3m1 0h1M8 12.5h1m1 0h3m1 0h1m3 0h2m1 0h3m2 0h2m1 0h2m1 0h5m2 0h1m1 0h1m2 0h4m1 0h2m3 0h1m1 0h3m1 0h1M8 13.5h1m5 0h1m3 0h2m3 0h2m1 0h1m3 0h1m1 0h1m3 0h1m1 0h1m2 0h3m1 0h1m4 0h1m3 0h1m5 0h1M8 14.5h7m1 0h1m1 0h1m1 0h1m1 0h1m1 0h1m1 0h1m1 0h1m1 0h1m1 0h1m1 0h1m1 0h1m1 0h1m1 0h1m1 0h1m1 0h1m1 0h1m1 0h1m1 0h1m1 0h1m1 0h7M16 15.5h3m2 0h5m2 0h1m3 0h1m3 0h3m1 0h2m2 0h4m1 0h1m2 0h1M8 16.5h1m1 0h2m1 0h3m2 0h5m3 0h2m2 0h8m3 0h1m4 0h4m1 0h1m2 0h1m2 0h1m1 0h2M10 17.5h2m1 0h1m1 0h1m1 0h3m3 0h1m1 0h1m1 0h1m2 0h3m1 0h2m1 0h3m5 0h1m3 0h3m3 0h3m2 0h1M10 18.5h1m2 0h2m1 0h2m2 0h2m1 0h1m4 0h4m1 0h3m2 0h3m2 0h1m1 0h2m2 0h1m1 0h1m3 0h1m2 0h1M9 19.5h1m1 0h1m1 0h1m1 0h1m1 0h4m3 0h3m2 0h3m7 0h2m2 0h2m2 0h1m12 0h1M9 20.5h2m1 0h1m1 0h1m3 0h1m5 0h2m5 0h2m2 0h5m4 0h4m1 0h2m1 0h1m1 0h3m1 0h3M9 21.5h3m1 0h1m1 0h1m3 0h1m1 0h1m1 0h2m1 0h2m1 0h4m1 0h3m2 0h2m4 0h5m1 0h3m3 0h3M11 22.5h1m2 0h1m1 0h2m1 0h3m1 0h2m1 0h2m3 0h4m1 0h1m3 0h2m4 0h1m3 0h1m3 0h1m3 0h3M8 23.5h2m2 0h2m1 0h4m1 0h2m2 0h1m3 0h1m1 0h1m1 0h1m3 0h1m5 0h2m3 0h3m1 0h4m2 0h1M8 24.5h2m1 0h2m1 0h2m4 0h1m3 0h3m2 0h1m3 0h1m1 0h3m1 0h2m1 0h1m3 0h2m6 0h1m2 0h2m1 0h1M8 25.5h1m2 0h3m1 0h1m3 0h2m1 0h1m3 0h3m3 0h1m2 0h3m1 0h6m2 0h1m5 0h4m2 0h1M8 26.5h2m1 0h5m1 0h1m1 0h1m1 0h1m2 0h6m2 0h3m3 0h1m3 0h2m1 0h3m5 0h3m1 0h1M8 27.5h3m1 0h2m1 0h1m4 0h2m1 0h1m2 0h4m3 0h3m1 0h2m5 0h1m1 0h1m2 0h1m2 0h1m1 0h1m2 0h2M8 28.5h2m1 0h1m1 0h2m1 0h5m1 0h1m5 0h6m4 0h1m4 0h1m3 0h5m1 0h1m1 0h1m4 0h1M9 29.5h2m1 0h1m2 0h1m1 0h3m2 0h4m1 0h3m1 0h5m1 0h3m3 0h3m2 0h4m7 0h2M8 30.5h1m3 0h3m2 0h2m2 0h1m2 0h2m2 0h1m1 0h2m3 0h1m4 0h1m1 0h1m3 0h3m1 0h3m5 0h2M8 31.5h1m1 0h3m2 0h2m2 0h1m2 0h1m2 0h1m2 0h1m2 0h1m5 0h4m2 0h1m2 0h1m1 0h1m1 0h2m4 0h1M9 32.5h1m1 0h6m1 0h2m1 0h1m3 0h2m1 0h1m3 0h8m1 0h4m1 0h1m2 0h9M8 33.5h1m2 0h2m3 0h1m3 0h2m1 0h1m2 0h2m1 0h1m1 0h2m3 0h2m3 0h1m2 0h4m4 0h1m3 0h3m1 0h1M8 34.5h1m1 0h3m1 0h1m1 0h1m1 0h1m3 0h1m1 0h1m1 0h7m1 0h1m1 0h1m1 0h2m2 0h2m1 0h1m1 0h3m2 0h1m1 0h1m1 0h2m1 0h2M11 35.5h2m3 0h2m2 0h1m2 0h3m2 0h1m1 0h1m1 0h1m3 0h4m2 0h3m2 0h2m1 0h1m1 0h1m3 0h2m2 0h1M8 36.5h2m2 0h6m1 0h1m4 0h2m1 0h3m1 0h7m1 0h3m3 0h1m1 0h1m4 0h6m1 0h1M8 37.5h1m1 0h2m1 0h1m1 0h2m1 0h1m5 0h3m3 0h1m1 0h2m1 0h1m3 0h7m2 0h2m1 0h1m6 0h1m1 0h1M11 38.5h2m1 0h1m1 0h4m1 0h1m1 0h1m2 0h5m1 0h1m1 0h1m1 0h2m2 0h1m1 0h6m2 0h2m3 0h1m1 0h1M9 39.5h2m1 0h1m2 0h3m1 0h1m2 0h2m1 0h1m3 0h1m1 0h2m5 0h1m1 0h2m1 0h1m1 0h2m1 0h3m6 0h2M8 40.5h1m5 0h1m1 0h10m1 0h4m1 0h1m2 0h1m5 0h1m1 0h1m2 0h1m1 0h4m2 0h1m2 0h1m1 0h2M8 41.5h2m1 0h1m1 0h1m6 0h1m1 0h1m1 0h3m7 0h2m1 0h4m3 0h2m3 0h4m2 0h3m2 0h1M8 42.5h2m4 0h3m3 0h1m1 0h1m2 0h1m2 0h1m2 0h5m1 0h3m6 0h3m3 0h2m3 0h2M9 43.5h1m1 0h1m3 0h3m1 0h6m2 0h6m1 0h3m1 0h3m3 0h2m2 0h5m1 0h1m1 0h1m2 0h2M8 44.5h1m3 0h3m4 0h2m1 0h2m2 0h1m6 0h1m1 0h1m2 0h2m1 0h1m2 0h1m1 0h1m2 0h1m4 0h2M8 45.5h1m2 0h1m5 0h2m3 0h2m4 0h1m10 0h1m1 0h1m1 0h5m3 0h5m3 0h2M8 46.5h2m1 0h1m1 0h3m4 0h1m3 0h2m1 0h2m1 0h1m8 0h1m2 0h1m1 0h1m1 0h1m1 0h2m1 0h5m4 0h1M8 47.5h1m1 0h1m1 0h2m1 0h3m1 0h1m2 0h2m2 0h1m1 0h1m3 0h2m1 0h1m3 0h3m2 0h2m1 0h2m2 0h1m1 0h1m1 0h3m2 0h1M8 48.5h1m1 0h2m1 0h3m4 0h2m1 0h1m2 0h2m1 0h1m2 0h1m1 0h1m4 0h4m10 0h1m1 0h2m1 0h1M8 49.5h3m2 0h1m1 0h1m3 0h2m2 0h2m2 0h2m1 0h3m1 0h1m1 0h1m2 0h1m2 0h3m2 0h1m1 0h1m1 0h1m2 0h2M8 50.5h2m1 0h5m1 0h1m2 0h1m1 0h2m2 0h2m7 0h3m2 0h1m1 0h1m1 0h2m3 0h1M9 51.5h2m5 0h1m1 0h2m3 0h1m1 0h3m3 0h1m1 0h3m1 0h2m1 0h2m1 0h2m2 0h2m5 0h7M11 52.5h1m2 0h2m1 0h1m2 0h3m1 0h2m2 0h11m2 0h1m1 0h1m3 0h11m1 0h1M16 53.5h3m2 0h1m1 0h2m2 0h2m2 0h2m3 0h1m1 0h1m1 0h1m2 0h1m1 0h1m1 0h1m1 0h4m3 0h1M8 54.5h7m1 0h1m2 0h2m1 0h1m1 0h1m3 0h1m3 0h1m1 0h1m1 0h1m1 0h1m1 0h1m2 0h1m1 0h2m1 0h1m1 0h1m1 0h1m1 0h1m1 0h2m1 0h1M8 55.5h1m5 0h1m1 0h1m1 0h1m1 0h3m3 0h1m2 0h2m1 0h1m3 0h2m1 0h1m2 0h1m2 0h1m1 0h1m3 0h2m3 0h1m2 0h2M8 56.5h1m1 0h3m1 0h1m3 0h1m1 0h5m1 0h1m1 0h2m2 0h6m1 0h1m1 0h4m4 0h2m1 0h5m2 0h2M8 57.5h1m1 0h3m1 0h1m1 0h3m3 0h1m1 0h2m1 0h1m3 0h1m2 0h1m1 0h1m2 0h1m1 0h1m2 0h3m1 0h1m2 0h1m3 0h2m1 0h3M8 58.5h1m1 0h3m1 0h1m1 0h2m2 0h3m7 0h1m1 0h1m1 0h1m1 0h2m2 0h2m9 0h1m3 0h1m1 0h2M8 59.5h1m5 0h1m2 0h3m1 0h1m4 0h1m1 0h1m1 0h2m2 0h3m3 0h2m2 0h4m5 0h1m2 0h2m1 0h1M8 60.5h7m1 0h2m1 0h2m1 0h4m4 0h1m3 0h2m1 0h1m1 0h2m1 0h1m2 0h1m1 0h1m1 0h3m1 0h4m2 0h1"/></svg>
